<svg xmlns="http://www.w3.org/2000/svg" viewBox="0 0 200 200" role="img" aria-label="Lino de cachecol">
  <circle cx="100" cy="100" r="100" fill="#FFF1EA"/>
  <ellipse cx="100" cy="168" rx="62" ry="38" fill="#3CB54A"/>
  <ellipse cx="100" cy="170" rx="34" ry="24" fill="#BFEA9A"/>
  <path d="M38 118c8 28 28 46 62 46s54-18 62-46c-10 18-34 30-62 30s-52-12-62-30z" fill="#3CB54A"/>
  <ellipse cx="48" cy="132" rx="18" ry="14" fill="#E23B2C" transform="rotate(-18 48 132)"/>
  <ellipse cx="152" cy="132" rx="18" ry="14" fill="#E23B2C" transform="rotate(18 152 132)"/>
  <circle cx="100" cy="92" r="58" fill="#F5D031"/>
  <ellipse cx="100" cy="108" rx="46" ry="38" fill="#FFE27A"/>
  <path d="M48 78c8-38 36-58 52-58 16 0 44 20 52 58-14-22-34-32-52-32S62 56 48 78z" fill="#3CB54A"/>
  <path d="M58 148c18 10 36 14 42 8 8 22 6 36 2 44-10-4-18-16-22-30-8 6-16 10-22-22z" fill="#E25C38"/>
  <path d="M58 148c44 18 84 8 86-8" fill="none" stroke="#2C2158" stroke-width="10" stroke-linecap="round"/>
  <path d="M86 118c6 10 22 10 28 0 2 14-6 24-14 24s-16-10-14-24z" fill="#F4A027"/>
  <circle cx="78" cy="96" r="10" fill="#fff"/>
  <circle cx="122" cy="96" r="10" fill="#fff"/>
  <circle cx="80" cy="97" r="5.2" fill="#2C2158"/>
  <circle cx="124" cy="97" r="5.2" fill="#2C2158"/>
  <circle cx="82" cy="95" r="1.8" fill="#fff"/>
  <circle cx="126" cy="95" r="1.8" fill="#fff"/>
</svg>
